<mxfile host="app.diagrams.net" modified="2023-05-22T13:49:49.054Z" agent="Mozilla/5.0 (Windows NT 10.0; Win64; x64) AppleWebKit/537.36 (KHTML, like Gecko) Chrome/113.0.0.0 Safari/537.36 Edg/113.0.1774.42" etag="njKQ4lkz2Z1fgwS7W_rc" version="21.3.2" type="device">
  <diagram id="Q7a3Lx0D1hpUdwDK7hqP" name="Page-1">
    <mxGraphModel dx="858" dy="1415" grid="1" gridSize="10" guides="1" tooltips="1" connect="1" arrows="0" fold="1" page="1" pageScale="1" pageWidth="827" pageHeight="1169" math="0" shadow="0">
      <root>
        <mxCell id="0" />
        <mxCell id="1" parent="0" />
        <mxCell id="HesBHSnCD7od_jnlGQMN-1" value="" style="image;points=[];aspect=fixed;html=1;align=center;shadow=0;dashed=0;image=img/lib/allied_telesis/computer_and_terminals/Personal_Computer.svg;direction=east;" parent="1" vertex="1">
          <mxGeometry x="30" y="398.9" width="65.6" height="88.9" as="geometry" />
        </mxCell>
        <mxCell id="HesBHSnCD7od_jnlGQMN-2" value="" style="verticalLabelPosition=bottom;sketch=0;aspect=fixed;html=1;verticalAlign=top;align=center;outlineConnect=0;shape=mxgraph.citrix.dns_server;fillColor=#666666;" parent="1" vertex="1">
          <mxGeometry x="312" y="390" width="86.42" height="104.5" as="geometry" />
        </mxCell>
        <mxCell id="HesBHSnCD7od_jnlGQMN-4" value="" style="html=1;verticalLabelPosition=bottom;align=center;labelBackgroundColor=#ffffff;verticalAlign=top;strokeWidth=2;strokeColor=#6F0000;shadow=0;dashed=0;shape=mxgraph.ios7.icons.user;fillColor=#a20025;fontColor=#ffffff;" parent="1" vertex="1">
          <mxGeometry x="315.21" y="80" width="80" height="80" as="geometry" />
        </mxCell>
        <mxCell id="HesBHSnCD7od_jnlGQMN-5" value="" style="sketch=0;pointerEvents=1;shadow=0;dashed=0;html=1;strokeColor=#666666;fillColor=#f5f5f5;labelPosition=center;verticalLabelPosition=bottom;verticalAlign=top;outlineConnect=0;align=center;shape=mxgraph.office.concepts.website;fontColor=#333333;" parent="1" vertex="1">
          <mxGeometry x="660" y="390" width="120" height="100" as="geometry" />
        </mxCell>
        <mxCell id="HesBHSnCD7od_jnlGQMN-8" value="" style="group" parent="1" vertex="1" connectable="0">
          <mxGeometry x="660" y="170" width="120" height="100" as="geometry" />
        </mxCell>
        <mxCell id="HesBHSnCD7od_jnlGQMN-6" value="" style="sketch=0;pointerEvents=1;shadow=0;dashed=0;html=1;strokeColor=#666666;fillColor=#f5f5f5;labelPosition=center;verticalLabelPosition=bottom;verticalAlign=top;outlineConnect=0;align=center;shape=mxgraph.office.concepts.website;fontColor=#333333;" parent="HesBHSnCD7od_jnlGQMN-8" vertex="1">
          <mxGeometry width="120" height="100" as="geometry" />
        </mxCell>
        <mxCell id="HesBHSnCD7od_jnlGQMN-7" value="" style="html=1;verticalLabelPosition=bottom;align=center;labelBackgroundColor=#ffffff;verticalAlign=top;strokeWidth=2;strokeColor=#6F0000;shadow=0;dashed=0;shape=mxgraph.ios7.icons.user;fillColor=#a20025;fontColor=#ffffff;" parent="HesBHSnCD7od_jnlGQMN-8" vertex="1">
          <mxGeometry x="61" y="41" width="60" height="60" as="geometry" />
        </mxCell>
        <mxCell id="HesBHSnCD7od_jnlGQMN-9" value="" style="endArrow=classic;html=1;rounded=0;" parent="1" source="HesBHSnCD7od_jnlGQMN-1" target="HesBHSnCD7od_jnlGQMN-2" edge="1">
          <mxGeometry relative="1" as="geometry">
            <mxPoint x="100" y="450" as="sourcePoint" />
            <mxPoint x="290" y="450" as="targetPoint" />
          </mxGeometry>
        </mxCell>
        <mxCell id="HesBHSnCD7od_jnlGQMN-10" value="2&lt;br style=&quot;font-size: 14px;&quot;&gt;Client Issues request for belair.com" style="edgeLabel;resizable=0;html=1;align=center;verticalAlign=middle;fontStyle=1;fontFamily=Times New Roman;fontSize=14;" parent="HesBHSnCD7od_jnlGQMN-9" connectable="0" vertex="1">
          <mxGeometry relative="1" as="geometry">
            <mxPoint x="-3" y="22" as="offset" />
          </mxGeometry>
        </mxCell>
        <mxCell id="HesBHSnCD7od_jnlGQMN-11" value="" style="endArrow=classic;html=1;rounded=0;exitX=0.513;exitY=1.017;exitDx=0;exitDy=0;exitPerimeter=0;" parent="1" source="HesBHSnCD7od_jnlGQMN-4" target="HesBHSnCD7od_jnlGQMN-2" edge="1">
          <mxGeometry width="50" height="50" relative="1" as="geometry">
            <mxPoint x="352" y="270" as="sourcePoint" />
            <mxPoint x="282" y="480" as="targetPoint" />
          </mxGeometry>
        </mxCell>
        <mxCell id="HesBHSnCD7od_jnlGQMN-16" value="" style="curved=1;endArrow=classic;html=1;rounded=0;" parent="1" source="HesBHSnCD7od_jnlGQMN-2" target="HesBHSnCD7od_jnlGQMN-6" edge="1">
          <mxGeometry width="50" height="50" relative="1" as="geometry">
            <mxPoint x="480" y="370" as="sourcePoint" />
            <mxPoint x="610" y="250" as="targetPoint" />
            <Array as="points">
              <mxPoint x="510" y="442" />
              <mxPoint x="540" y="442" />
              <mxPoint x="540" y="390" />
              <mxPoint x="540" y="350" />
              <mxPoint x="540" y="270" />
              <mxPoint x="540" y="230" />
              <mxPoint x="550" y="220" />
              <mxPoint x="570" y="220" />
              <mxPoint x="610" y="220" />
            </Array>
          </mxGeometry>
        </mxCell>
        <mxCell id="HesBHSnCD7od_jnlGQMN-19" value="3&lt;br style=&quot;font-size: 15px;&quot;&gt;Request resolves to fake website" style="text;html=1;align=center;verticalAlign=middle;resizable=0;points=[];autosize=1;strokeColor=none;fillColor=none;fontFamily=Times New Roman;fontStyle=1;fontSize=15;" parent="1" vertex="1">
          <mxGeometry x="435" y="165" width="230" height="50" as="geometry" />
        </mxCell>
        <mxCell id="HesBHSnCD7od_jnlGQMN-20" value="" style="endArrow=none;dashed=1;html=1;rounded=0;" parent="1" edge="1">
          <mxGeometry width="50" height="50" relative="1" as="geometry">
            <mxPoint x="540" y="440" as="sourcePoint" />
            <mxPoint x="660" y="440" as="targetPoint" />
          </mxGeometry>
        </mxCell>
        <mxCell id="HesBHSnCD7od_jnlGQMN-21" value="Fake&lt;br style=&quot;font-size: 17px;&quot;&gt;Website" style="text;html=1;align=center;verticalAlign=middle;resizable=0;points=[];autosize=1;strokeColor=none;fillColor=none;fontStyle=1;fontFamily=Times New Roman;fontSize=17;" parent="1" vertex="1">
          <mxGeometry x="665" y="255" width="80" height="50" as="geometry" />
        </mxCell>
        <mxCell id="HesBHSnCD7od_jnlGQMN-22" value="Real&lt;br style=&quot;font-size: 17px;&quot;&gt;Website" style="text;html=1;align=center;verticalAlign=middle;resizable=0;points=[];autosize=1;strokeColor=none;fillColor=none;fontStyle=1;fontFamily=Times New Roman;fontSize=17;" parent="1" vertex="1">
          <mxGeometry x="665" y="482.8" width="80" height="50" as="geometry" />
        </mxCell>
        <mxCell id="HesBHSnCD7od_jnlGQMN-23" value="DNS" style="text;html=1;align=center;verticalAlign=middle;resizable=0;points=[];autosize=1;strokeColor=none;fillColor=none;fontStyle=1;fontFamily=Times New Roman;fontSize=16;" parent="1" vertex="1">
          <mxGeometry x="325.21" y="495.8" width="60" height="30" as="geometry" />
        </mxCell>
        <mxCell id="HesBHSnCD7od_jnlGQMN-24" value="Attacker" style="text;html=1;align=center;verticalAlign=middle;resizable=0;points=[];autosize=1;strokeColor=none;fillColor=none;fontStyle=1;fontFamily=Times New Roman;fontSize=17;" parent="1" vertex="1">
          <mxGeometry x="310.21" y="40" width="90" height="30" as="geometry" />
        </mxCell>
        <mxCell id="HesBHSnCD7od_jnlGQMN-25" value="" style="endArrow=classic;html=1;rounded=0;" parent="1" edge="1">
          <mxGeometry width="50" height="50" relative="1" as="geometry">
            <mxPoint x="653" y="440" as="sourcePoint" />
            <mxPoint x="663" y="440" as="targetPoint" />
          </mxGeometry>
        </mxCell>
        <mxCell id="HesBHSnCD7od_jnlGQMN-28" value="192.168.0.6" style="text;html=1;align=center;verticalAlign=middle;resizable=0;points=[];autosize=1;strokeColor=none;fillColor=none;fontStyle=1;fontFamily=Times New Roman;fontSize=17;" parent="1" vertex="1">
          <mxGeometry x="660" y="538" width="100" height="30" as="geometry" />
        </mxCell>
        <mxCell id="HesBHSnCD7od_jnlGQMN-29" value="120.55.4.0" style="text;html=1;align=center;verticalAlign=middle;resizable=0;points=[];autosize=1;strokeColor=none;fillColor=none;fontStyle=1;fontFamily=Times New Roman;fontSize=17;" parent="1" vertex="1">
          <mxGeometry x="655" y="305" width="100" height="30" as="geometry" />
        </mxCell>
        <mxCell id="HesBHSnCD7od_jnlGQMN-30" value="Client" style="text;html=1;align=center;verticalAlign=middle;resizable=0;points=[];autosize=1;strokeColor=none;fillColor=none;fontStyle=1;fontFamily=Times New Roman;fontSize=17;" parent="1" vertex="1">
          <mxGeometry x="25.6" y="494.5" width="70" height="30" as="geometry" />
        </mxCell>
        <mxCell id="HesBHSnCD7od_jnlGQMN-31" value="9.9.9.9" style="text;html=1;align=center;verticalAlign=middle;resizable=0;points=[];autosize=1;strokeColor=none;fillColor=none;fontStyle=1;fontFamily=Times New Roman;fontSize=17;" parent="1" vertex="1">
          <mxGeometry x="320.21" y="524.5" width="70" height="30" as="geometry" />
        </mxCell>
        <mxCell id="HesBHSnCD7od_jnlGQMN-32" value="" style="image;aspect=fixed;html=1;points=[];align=center;fontSize=12;image=img/lib/azure2/general/Globe_Warning.svg;" parent="1" vertex="1">
          <mxGeometry x="620" y="335" width="25" height="29.47" as="geometry" />
        </mxCell>
        <mxCell id="HesBHSnCD7od_jnlGQMN-33" value="&lt;strike&gt;https://&lt;/strike&gt;belair.com" style="text;html=1;align=center;verticalAlign=middle;resizable=0;points=[];autosize=1;strokeColor=none;fillColor=none;fontStyle=1;fontFamily=Times New Roman;fontSize=15;" parent="1" vertex="1">
          <mxGeometry x="650" y="330" width="140" height="30" as="geometry" />
        </mxCell>
        <mxCell id="HesBHSnCD7od_jnlGQMN-34" value="" style="html=1;verticalLabelPosition=bottom;align=center;labelBackgroundColor=#ffffff;verticalAlign=top;strokeWidth=2;shadow=0;dashed=0;shape=mxgraph.ios7.icons.locked;fillColor=#FF591C;strokeColor=#FF591C;" parent="1" vertex="1">
          <mxGeometry x="625.5" y="565" width="14" height="20" as="geometry" />
        </mxCell>
        <mxCell id="HesBHSnCD7od_jnlGQMN-35" value="&lt;span style=&quot;--tw-border-spacing-x: 0; --tw-border-spacing-y: 0; --tw-translate-x: 0; --tw-translate-y: 0; --tw-rotate: 0; --tw-skew-x: 0; --tw-skew-y: 0; --tw-scale-x: 1; --tw-scale-y: 1; --tw-pan-x: ; --tw-pan-y: ; --tw-pinch-zoom: ; --tw-scroll-snap-strictness: proximity; --tw-ordinal: ; --tw-slashed-zero: ; --tw-numeric-figure: ; --tw-numeric-spacing: ; --tw-numeric-fraction: ; --tw-ring-inset: ; --tw-ring-offset-width: 0px; --tw-ring-offset-color: #fff; --tw-ring-color: rgb(59 130 246 / 0.5); --tw-ring-offset-shadow: 0 0 #0000; --tw-ring-shadow: 0 0 #0000; --tw-shadow: 0 0 #0000; --tw-shadow-colored: 0 0 #0000; --tw-blur: ; --tw-brightness: ; --tw-contrast: ; --tw-grayscale: ; --tw-hue-rotate: ; --tw-invert: ; --tw-saturate: ; --tw-sepia: ; --tw-drop-shadow: ; --tw-backdrop-blur: ; --tw-backdrop-brightness: ; --tw-backdrop-contrast: ; --tw-backdrop-grayscale: ; --tw-backdrop-hue-rotate: ; --tw-backdrop-invert: ; --tw-backdrop-opacity: ; --tw-backdrop-saturate: ; --tw-backdrop-sepia: ; font-family: &amp;quot;Times New Roman&amp;quot;; font-size: 15px; font-weight: 700;&quot;&gt;https://belair&lt;/span&gt;.com" style="text;html=1;align=center;verticalAlign=middle;resizable=0;points=[];autosize=1;strokeColor=none;fillColor=none;" parent="1" vertex="1">
          <mxGeometry x="645" y="560" width="130" height="30" as="geometry" />
        </mxCell>
        <mxCell id="HesBHSnCD7od_jnlGQMN-36" value="1&lt;br style=&quot;--tw-border-spacing-x: 0; --tw-border-spacing-y: 0; --tw-translate-x: 0; --tw-translate-y: 0; --tw-rotate: 0; --tw-skew-x: 0; --tw-skew-y: 0; --tw-scale-x: 1; --tw-scale-y: 1; --tw-pan-x: ; --tw-pan-y: ; --tw-pinch-zoom: ; --tw-scroll-snap-strictness: proximity; --tw-ordinal: ; --tw-slashed-zero: ; --tw-numeric-figure: ; --tw-numeric-spacing: ; --tw-numeric-fraction: ; --tw-ring-inset: ; --tw-ring-offset-width: 0px; --tw-ring-offset-color: #fff; --tw-ring-color: rgb(59 130 246 / 0.5); --tw-ring-offset-shadow: 0 0 #0000; --tw-ring-shadow: 0 0 #0000; --tw-shadow: 0 0 #0000; --tw-shadow-colored: 0 0 #0000; --tw-blur: ; --tw-brightness: ; --tw-contrast: ; --tw-grayscale: ; --tw-hue-rotate: ; --tw-invert: ; --tw-saturate: ; --tw-sepia: ; --tw-drop-shadow: ; --tw-backdrop-blur: ; --tw-backdrop-brightness: ; --tw-backdrop-contrast: ; --tw-backdrop-grayscale: ; --tw-backdrop-hue-rotate: ; --tw-backdrop-invert: ; --tw-backdrop-opacity: ; --tw-backdrop-saturate: ; --tw-backdrop-sepia: ; font-family: &amp;quot;Times New Roman&amp;quot;; font-size: 15px; font-weight: 700;&quot;&gt;&lt;span style=&quot;--tw-border-spacing-x: 0; --tw-border-spacing-y: 0; --tw-translate-x: 0; --tw-translate-y: 0; --tw-rotate: 0; --tw-skew-x: 0; --tw-skew-y: 0; --tw-scale-x: 1; --tw-scale-y: 1; --tw-pan-x: ; --tw-pan-y: ; --tw-pinch-zoom: ; --tw-scroll-snap-strictness: proximity; --tw-ordinal: ; --tw-slashed-zero: ; --tw-numeric-figure: ; --tw-numeric-spacing: ; --tw-numeric-fraction: ; --tw-ring-inset: ; --tw-ring-offset-width: 0px; --tw-ring-offset-color: #fff; --tw-ring-color: rgb(59 130 246 / 0.5); --tw-ring-offset-shadow: 0 0 #0000; --tw-ring-shadow: 0 0 #0000; --tw-shadow: 0 0 #0000; --tw-shadow-colored: 0 0 #0000; --tw-blur: ; --tw-brightness: ; --tw-contrast: ; --tw-grayscale: ; --tw-hue-rotate: ; --tw-invert: ; --tw-saturate: ; --tw-sepia: ; --tw-drop-shadow: ; --tw-backdrop-blur: ; --tw-backdrop-brightness: ; --tw-backdrop-contrast: ; --tw-backdrop-grayscale: ; --tw-backdrop-hue-rotate: ; --tw-backdrop-invert: ; --tw-backdrop-opacity: ; --tw-backdrop-saturate: ; --tw-backdrop-sepia: ; font-family: &amp;quot;Times New Roman&amp;quot;; font-size: 15px; font-weight: 700;&quot;&gt;Injects fake DNS entry&lt;/span&gt;" style="text;html=1;align=center;verticalAlign=middle;resizable=0;points=[];autosize=1;strokeColor=none;fillColor=none;" parent="1" vertex="1">
          <mxGeometry x="180" y="250" width="170" height="50" as="geometry" />
        </mxCell>
        <mxCell id="4UEoZY5kD-idYngmcP3d-1" value="120.55.4.0" style="text;html=1;align=center;verticalAlign=middle;resizable=0;points=[];autosize=1;strokeColor=none;fillColor=none;fontStyle=1;fontFamily=Times New Roman;fontSize=17;fontColor=#a20025;" parent="1" vertex="1">
          <mxGeometry x="10.600000000000023" y="320" width="100" height="30" as="geometry" />
        </mxCell>
        <mxCell id="4UEoZY5kD-idYngmcP3d-2" value="&lt;strike&gt;192.168.0.6&lt;/strike&gt;" style="text;html=1;align=center;verticalAlign=middle;resizable=0;points=[];autosize=1;strokeColor=none;fillColor=none;fontStyle=1;fontFamily=Times New Roman;fontSize=17;" parent="1" vertex="1">
          <mxGeometry x="12.799999999999997" y="350" width="100" height="30" as="geometry" />
        </mxCell>
        <mxCell id="Z2BrNz-BsiRiex3oLd8q-1" value="" style="group" vertex="1" connectable="0" parent="1">
          <mxGeometry x="380" y="650" width="120" height="100" as="geometry" />
        </mxCell>
        <mxCell id="Z2BrNz-BsiRiex3oLd8q-2" value="" style="sketch=0;pointerEvents=1;shadow=0;dashed=0;html=1;strokeColor=#666666;fillColor=#f5f5f5;labelPosition=center;verticalLabelPosition=bottom;verticalAlign=top;outlineConnect=0;align=center;shape=mxgraph.office.concepts.website;fontColor=#333333;" vertex="1" parent="Z2BrNz-BsiRiex3oLd8q-1">
          <mxGeometry width="120" height="100" as="geometry" />
        </mxCell>
        <mxCell id="Z2BrNz-BsiRiex3oLd8q-3" value="" style="html=1;verticalLabelPosition=bottom;align=center;labelBackgroundColor=#ffffff;verticalAlign=top;strokeWidth=2;strokeColor=#6F0000;shadow=0;dashed=0;shape=mxgraph.ios7.icons.user;fillColor=#a20025;fontColor=#ffffff;" vertex="1" parent="Z2BrNz-BsiRiex3oLd8q-1">
          <mxGeometry x="61" y="41" width="60" height="60" as="geometry" />
        </mxCell>
      </root>
    </mxGraphModel>
  </diagram>
</mxfile>
